<svg xmlns="http://www.w3.org/2000/svg" width="29" height="29" viewBox="0 0 29 29">
    <path fill="#FFB500" fill-rule="evenodd" d="M16.805 22H9.824l-.335 3.83a2.5 2.5 0 1 1-4.981-.436L4.805 22H2.782A2.49 2.49 0 0 1 .29 19.5c0-1.38 1.118-2.5 2.493-2.5h2.46l.613-7H4.782A2.49 2.49 0 0 1 2.29 7.5C2.29 6.12 3.407 5 4.782 5h1.51l.219-2.5a2.5 2.5 0 1 1 4.981.436L11.312 5h6.98l.219-2.5a2.5 2.5 0 1 1 4.981.436L23.312 5h2.484a2.49 2.49 0 0 1 2.493 2.5c0 1.38-1.117 2.5-2.493 2.5h-2.922l-.613 7h1.535a2.49 2.49 0 0 1 2.493 2.5c0 1.38-1.117 2.5-2.493 2.5h-1.972l-.335 3.83a2.5 2.5 0 1 1-4.981-.436L16.805 22zm.437-5l.613-7h-6.981l-.613 7h6.981z"/>
</svg>
