<svg xmlns="http://www.w3.org/2000/svg" width="64" height="64" viewBox="0 0 64 64">
    <g fill="none" fill-rule="evenodd">
        <circle cx="32" cy="32" r="32" fill="#181820" opacity=".3"/>
        <g fill="#FFF">
            <path d="M32.002 51.313a1.6 1.6 0 0 1-1.144-.476L26.023 46a1.606 1.606 0 0 1 0-2.278 1.606 1.606 0 0 1 2.279 0l3.7 3.7 3.7-3.7c.303-.304.71-.477 1.144-.477h11.282c.892 0 1.612-.72 1.612-1.612V15.847c0-.884-.72-1.612-1.612-1.612H15.893a1.62 1.62 0 0 0-1.611 1.612v25.787c0 .893.728 1.612 1.611 1.612h4.836c.892 0 1.611.72 1.611 1.612 0 .892-.719 1.611-1.611 1.611h-4.836a4.837 4.837 0 0 1-4.835-4.835V15.847a4.837 4.837 0 0 1 4.835-4.836h32.235a4.837 4.837 0 0 1 4.835 4.836v25.787a4.837 4.837 0 0 1-4.835 4.835H37.504l-4.358 4.368a1.622 1.622 0 0 1-1.144.476"/>
            <path d="M23.137 30.352a2.419 2.419 0 0 1 0-4.835 2.419 2.419 0 0 1 0 4.835zm9.67 0a2.419 2.419 0 0 1 0-4.835 2.419 2.419 0 0 1 0 4.835zm9.68 0a2.419 2.419 0 0 1 0-4.835 2.419 2.419 0 0 1 2.417 2.418 2.424 2.424 0 0 1-2.417 2.417z"/>
        </g>
    </g>
</svg>
