<svg xmlns="http://www.w3.org/2000/svg" xmlns:xlink="http://www.w3.org/1999/xlink" width="66" height="66" viewBox="0 0 66 66">
    <defs>
        <linearGradient id="c" x1="35.092%" x2="18.336%" y1="70.112%" y2="98.98%">
            <stop offset="0%" stop-color="#FFF"/>
            <stop offset="100%" stop-color="#FBFBFB" stop-opacity=".376"/>
        </linearGradient>
        <path id="b" d="M32.922 2.16C15.843 2.16 2 14.27 2 29.212c0 8.54 4.533 16.143 11.593 21.105V64l13.545-8.22c1.875.31 3.802.49 5.78.49 17.079 0 30.922-12.114 30.922-27.057 0-14.94-13.84-27.054-30.918-27.054zm9.66 36.716H23.256a1.932 1.932 0 1 1 0-3.865h19.326a1.933 1.933 0 0 1 0 3.865zm3.865-11.596H19.39a1.932 1.932 0 1 1 0-3.865h27.056a1.932 1.932 0 1 1 0 3.865z"/>
        <filter id="a" width="112.9%" height="112.9%" x="-6.5%" y="-3.2%" filterUnits="objectBoundingBox">
            <feOffset dy="2" in="SourceAlpha" result="shadowOffsetOuter1"/>
            <feGaussianBlur in="shadowOffsetOuter1" result="shadowBlurOuter1" stdDeviation="1"/>
            <feColorMatrix in="shadowBlurOuter1" values="0 0 0 0 0 0 0 0 0 0 0 0 0 0 0 0 0 0 0.25 0"/>
        </filter>
    </defs>
    <g fill="none" fill-rule="evenodd">
        <g>
            <use fill="#000" filter="url(#a)" xlink:href="#b"/>
            <use fill="url(#c)" xlink:href="#b"/>
        </g>
        <path fill="#FFF" d="M32.922 2.16C15.843 2.16 2 14.27 2 29.212c0 8.54 4.533 16.143 11.593 21.105 0 0 2.658 2.012 6.264 3.466 3.607 1.454 7.281 1.996 7.281 1.996 1.875.31 3.802.49 5.78.49 17.079 0 30.922-12.114 30.922-27.057 0-14.94-13.84-27.054-30.918-27.054zm9.66 36.716H23.256a1.932 1.932 0 1 1 0-3.865h19.326a1.933 1.933 0 0 1 0 3.865zM19.391 27.28a1.932 1.932 0 1 1 0-3.865h27.056a1.932 1.932 0 1 1 0 3.865H19.39z"/>
    </g>
</svg>
