<svg xmlns="http://www.w3.org/2000/svg" width="45" height="48" viewBox="0 0 45 48">
    <path fill="#CCC" fill-rule="evenodd" d="M30.463 16.093c.517 0 1.028.037 1.534.095C30.62 9.768 23.758 5 15.927 5 7.172 5 0 10.968 0 18.548c0 4.375 2.386 7.968 6.373 10.756L4.78 34.096l5.568-2.793c1.993.394 3.591.799 5.579.799.5 0 .996-.025 1.487-.063a11.865 11.865 0 0 1-.491-3.339c0-6.96 5.975-12.607 13.54-12.607zm-8.563-4.32c1.199 0 1.993.79 1.993 1.988 0 1.194-.794 1.994-1.993 1.994-1.194 0-2.392-.8-2.392-1.994 0-1.198 1.198-1.988 2.392-1.988zm-11.147 3.982c-1.194 0-2.398-.8-2.398-1.994 0-1.198 1.204-1.988 2.398-1.988 1.194 0 1.988.79 1.988 1.988 0 1.194-.794 1.994-1.988 1.994zM45 28.51c0-6.37-6.372-11.562-13.529-11.562-7.578 0-13.546 5.192-13.546 11.562 0 6.38 5.968 11.56 13.546 11.56 1.586 0 3.186-.4 4.78-.799l4.368 2.394-1.198-3.983C42.618 35.283 45 32.102 45 28.51zm-17.92-1.994c-.794 0-1.594-.789-1.594-1.594 0-.794.8-1.592 1.593-1.592 1.205 0 1.994.798 1.994 1.592 0 .805-.79 1.594-1.994 1.594zm8.76 0c-.788 0-1.582-.789-1.582-1.594 0-.794.794-1.592 1.582-1.592 1.194 0 1.994.798 1.994 1.592 0 .805-.8 1.594-1.994 1.594z"/>
</svg>
