<svg xmlns="http://www.w3.org/2000/svg" width="64" height="64" viewBox="0 0 64 64">
    <g fill="none" fill-rule="evenodd">
        <circle cx="32" cy="32" r="32" fill="#181820" opacity=".3"/>
        <path fill="#FFF" stroke="#FFF" stroke-width=".5" d="M28.259 49.141L12.636 33.346C10.766 31.013 9 28.809 9 24.533 9 17.623 14.623 12 21.533 12c2.6 0 5.092.788 7.212 2.281a1.567 1.567 0 1 1-1.807 2.562 9.328 9.328 0 0 0-5.405-1.71c-5.184 0-9.4 4.216-9.4 9.4 0 3.007.994 4.412 2.897 6.79l15.45 15.609c.782.782 1.414 1.092 2.02 1.101.622.01 1.22-.302 2.026-1.107l15.503-15.662c1.274-1.38 2.838-3.71 2.838-6.73 0-5.185-4.216-9.4-9.4-9.4a9.378 9.378 0 0 0-6.342 2.46L30.56 24.16a1.565 1.565 0 0 1-2.215 0 1.565 1.565 0 0 1 0-2.215l6.615-6.616C37.325 13.166 40.329 12 43.467 12 50.377 12 56 17.623 56 24.533c0 4.033-2.015 7.064-3.705 8.896L36.747 49.135c-1.41 1.411-2.83 2.032-4.247 2.032-1.416 0-2.836-.62-4.241-2.026z"/>
    </g>
</svg>
