<svg xmlns="http://www.w3.org/2000/svg" viewBox="0 0 234 13.33">
<path fill="#a75b10" d="M6.49,8.93a10.87,10.87,0,0,1,1.32,1.42.43.43,0,0,1,.06.39,1.34,1.34,0,0,1-.37.49A11.8,11.8,0,0,0,6.11,9.61c-.46.69-1.17,1.61-1.68,2.25A1,1,0,0,1,4,11.52a.49.49,0,0,1,0-.51A13.44,13.44,0,0,0,5.56,9.09,15.43,15.43,0,0,0,4,7.7c.26-1.08.6-2.14.92-3.16a7.15,7.15,0,0,0-.81.24,2.39,2.39,0,0,1,0-.41A.47.47,0,0,1,4.4,4a3.41,3.41,0,0,1,.77-.22c.21-.58.45-1.24.66-1.88.24,0,.55.08.79.12-.21.52-.42,1.08-.6,1.6a6.21,6.21,0,0,1,1.15,0,1,1,0,0,1,.59.26.62.62,0,0,1,.16.53A16.78,16.78,0,0,1,6.49,8.93ZM7,4.26a6.39,6.39,0,0,0-1.25.1c-.33,1-.67,2-.93,3.08.37.3.77.64,1.14,1a15,15,0,0,0,1.2-3.95A.17.17,0,0,0,7,4.26Zm4.35,2.66a11.69,11.69,0,0,1,.08,3.76,1.24,1.24,0,0,1-.38.67,1.56,1.56,0,0,1-.69.38,2.23,2.23,0,0,1-1.11,0A.63.63,0,0,1,9,11.39a3.62,3.62,0,0,1-.09-.45A5.06,5.06,0,0,0,10,11a.67.67,0,0,0,.55-.34,2,2,0,0,0,.2-.91A10.8,10.8,0,0,0,10.6,7a19.43,19.43,0,0,0-3,.48,1.68,1.68,0,0,1,0-.41A.44.44,0,0,1,8,6.67a15.6,15.6,0,0,1,2.45-.37A7.34,7.34,0,0,0,10,5a14.53,14.53,0,0,0,2.69-2c.08-.08.09-.2,0-.21a13.52,13.52,0,0,0-4.53.59,2.4,2.4,0,0,1,0-.49.49.49,0,0,1,.31-.36,14,14,0,0,1,4.1-.45.9.9,0,0,1,.82.46.81.81,0,0,1-.06.81,11.6,11.6,0,0,1-2.45,1.94c.08.23.22.63.3.89.87-.06,1.79-.12,2.67-.12a6.93,6.93,0,0,1,0,.71C13,6.8,12.2,6.86,11.36,6.92Z"/>
<path fill="#a75b10" d="M18.67,5.69c-.2.23-.5.59-.7.86a20.42,20.42,0,0,1,5.17-.46,1.41,1.41,0,0,1,.92.38,1.39,1.39,0,0,1,.39.92c.08,1,.21,2.8.21,4a37.67,37.67,0,0,0-7.64.55,35.69,35.69,0,0,1,.13-4.35c-.33.36-1,1.24-1.23,1.63a1.34,1.34,0,0,1-.3-.49.66.66,0,0,1,0-.51c.58-.78,1.27-1.63,1.87-2.36-.63.07-1.29.2-1.89.31a1.34,1.34,0,0,1,.07-.46A.46.46,0,0,1,16,5.42a20.28,20.28,0,0,1,2.16-.34c.14-.17.46-.56.64-.74A27.84,27.84,0,0,0,16,4.74a1.24,1.24,0,0,1,.12-.49A.39.39,0,0,1,16.39,4c1-.19,2-.3,3.07-.39l.65-.72a39.24,39.24,0,0,0-3.89.53,2,2,0,0,1,.12-.55.49.49,0,0,1,.37-.29,65.37,65.37,0,0,1,7.72-.72c.08.2.26.58.33.75-1,0-2.46.07-3.47.16l-.66.72c1.06,0,2.83-.09,4.11-.08a5.8,5.8,0,0,1,0,.64c-1.62,0-3.19,0-4.77.15l-.63.72c1.42-.12,4.25-.26,6.13-.22,0,.16,0,.53,0,.71A48.33,48.33,0,0,0,18.67,5.69Zm5.14,4.08a35.41,35.41,0,0,0-6,.38c0,.3,0,.7,0,1a41.47,41.47,0,0,1,6-.39C23.82,10.47,23.82,10,23.81,9.77Zm-.07-1.58a38.81,38.81,0,0,0-5.88.46c0,.2,0,.63,0,.79a42.26,42.26,0,0,1,6-.35C23.78,8.88,23.76,8.43,23.74,8.19ZM23.56,7a.52.52,0,0,0-.39-.24A16.64,16.64,0,0,0,18,7.28c0,.19-.06.48-.07.66a44.71,44.71,0,0,1,5.76-.43A.77.77,0,0,0,23.56,7Z"/>
<path fill="#a75b10" d="M27.66,11.72a51.18,51.18,0,0,1,.1-6.9,3,3,0,0,0-.24.46,2.66,2.66,0,0,1-.3-.49.64.64,0,0,1,.07-.57,25.23,25.23,0,0,1,1.52-2.36l.66.28c-.3.41-.62.87-.88,1.27a7,7,0,0,1,1.52-.3,1,1,0,0,1,.86.33,1.47,1.47,0,0,1,.33,1c.13,1.94.15,5.29.12,6.77A17.09,17.09,0,0,0,27.66,11.72Zm.69-4.06c0,.75,0,2.31,0,3.12.71-.14,1.49-.22,2.23-.29,0-1.08,0-2.08,0-3.18A10,10,0,0,0,28.35,7.65Zm2.18-3.5a.33.33,0,0,0-.31-.32,4.11,4.11,0,0,0-1.63.34c-.1.89-.17,1.82-.2,2.72a12.82,12.82,0,0,1,2.25-.31C30.64,6.06,30.59,4.71,30.53,4.16Zm6.27,7.15a1,1,0,0,1-.59.38,4.51,4.51,0,0,1-1.57.07.42.42,0,0,1-.31-.3,2.6,2.6,0,0,1-.1-.5,7.3,7.3,0,0,0,1.59.06.57.57,0,0,0,.46-.45,45.43,45.43,0,0,0,0-5.9.69.69,0,0,0-.48-.56,8.33,8.33,0,0,0-2.89.36,11.44,11.44,0,0,0-.66,1.61,3.29,3.29,0,0,1-.42-.35.46.46,0,0,1-.1-.51,32.1,32.1,0,0,1,1.64-3.37l.72.27q-.42.75-.8,1.53a10.18,10.18,0,0,1,2.54-.24,1.23,1.23,0,0,1,.87.46A1.75,1.75,0,0,1,37,5.05a51.52,51.52,0,0,1,0,5.52A1.52,1.52,0,0,1,36.8,11.31ZM35,8.74a1.64,1.64,0,0,1-.44.34,17.9,17.9,0,0,0-1.67-3.33l.69-.37a15,15,0,0,1,1.56,2.88A.5.5,0,0,1,35,8.74Z"/>
<path fill="#a75b10" d="M48.22,11.81A40.69,40.69,0,0,0,43.9,9.64c-.8.56-2.08,1.42-3,2.14a1.83,1.83,0,0,1-.17-.43.49.49,0,0,1,.22-.58L43,9.27c-.6-.26-1.32-.55-2-.8.15-.19.4-.46.52-.59l2.2.89c1-.64,2-1.31,2.87-1.85.06,0,0-.08,0-.08a23.86,23.86,0,0,0-6.28.55,42.73,42.73,0,0,0-.72,4.32,1.64,1.64,0,0,1-.56-.17.46.46,0,0,1-.23-.5,41.24,41.24,0,0,1,1.5-6.94,4.23,4.23,0,0,0-.71.14,2.05,2.05,0,0,1,0-.53.41.41,0,0,1,.31-.31,22.38,22.38,0,0,1,3.46-.49,7.51,7.51,0,0,0-.06-1.06c.24,0,.57,0,.81,0,0,.29.06.71.07,1a22.81,22.81,0,0,1,3.08,0,1,1,0,0,1,.69.29.73.73,0,0,1,.08.74,4.28,4.28,0,0,1-.71,1.24.53.53,0,0,1-.58.12,2.22,2.22,0,0,1-.35-.26,5.5,5.5,0,0,0,.79-1.13c.07-.13,0-.21-.09-.23a19.69,19.69,0,0,0-2.87,0c0,.62,0,2.51,0,2.51a13.82,13.82,0,0,1,2.84.08.72.72,0,0,1,.52.49.54.54,0,0,1-.15.6c-.85.57-1.85,1.25-2.75,1.88,1,.48,2.32,1.06,3.43,1.65a.44.44,0,0,1,.25.49A2,2,0,0,1,48.22,11.81Zm-4.8-8.15c-.52,0-1.56.16-2.18.24-.28.87-.52,1.75-.72,2.66a22,22,0,0,1,2.92-.42A22.44,22.44,0,0,0,43.43,3.66Z"/>
<path fill="#a75b10" d="M60.17,6.14a.37.37,0,0,1-.3.17,1.55,1.55,0,0,1-.46,0,4,4,0,0,0,.13-.74c0-.14-.16-.19-.28-.2a48.34,48.34,0,0,0-7.61.34,7.32,7.32,0,0,0-.14,1l-.75.07c0-.31.09-.77.15-1l-.41.07a1.73,1.73,0,0,1,.08-.38.34.34,0,0,1,.27-.24C52,5.09,53.61,4.91,55,4.87a2.31,2.31,0,0,0,0-.29,28.92,28.92,0,0,0-3,.27,8.3,8.3,0,0,1,.14-.89l-.21,0A1.55,1.55,0,0,1,52,3.65a.33.33,0,0,1,.27-.22c.85-.12,2-.2,2.75-.24,0-.24,0-.09,0-.34a30.14,30.14,0,0,0-3.76.38,1.72,1.72,0,0,1,.07-.38.34.34,0,0,1,.26-.24c.93-.13,2.42-.27,3.41-.33,0-.12,0-.29,0-.42.19,0,.55,0,.74,0,0,.12,0,.26,0,.38,1.18,0,2.73,0,3.87,0,0,.12,0,.42,0,.56l-3.85,0c0,.1,0,.27,0,.35.56,0,1.67,0,2.22,0a.73.73,0,0,1,.46.22.68.68,0,0,1,.2.31,3.26,3.26,0,0,1,.12.82c-1,0-2,0-3,0v.3c1.18,0,2.75-.06,3.72,0A.88.88,0,0,1,60,5a.7.7,0,0,1,.24.41A1.25,1.25,0,0,1,60.17,6.14Zm-.09,5.71A46.39,46.39,0,0,0,55,10.16l.42-.49h-.27l-1,.42c0,.21-.07.57-.08.8.39-.08,1.14-.22,1.58-.28v.71c-.77.12-1.7.35-2.42.53,0-.45.1-1.08.15-1.42a24.6,24.6,0,0,0-2.57,1.23,1.73,1.73,0,0,1-.09-.45.41.41,0,0,1,.21-.42,20.93,20.93,0,0,1,2.42-1c-.85.07-1.7.19-2.53.31a1.2,1.2,0,0,1,.06-.38.31.31,0,0,1,.24-.24c.82-.13,1.76-.22,2.53-.29,0-.09,0-.24,0-.35-.49,0-1.3.12-1.8.17a1.08,1.08,0,0,1,.06-.3.33.33,0,0,1,.24-.22c.39,0,1.17-.13,1.52-.15a3.25,3.25,0,0,0,0-.33c-.74.06-1.49.15-2.23.26a2.7,2.7,0,0,1,.08-.37.39.39,0,0,1,.3-.24c.59-.08,1.36-.16,1.88-.2,0-.08,0-.21,0-.28a10.39,10.39,0,0,0-1.72.19,8,8,0,0,1,.12-.93l-.2.06a1,1,0,0,1,0-.31A.3.3,0,0,1,52.27,6a7.72,7.72,0,0,1,2-.19.69.69,0,0,1,.48.15,1,1,0,0,1,.23.36,4,4,0,0,1,.16.85,4.77,4.77,0,0,0-.58,0,1,1,0,0,0,0,.28l1.79-.07a1.7,1.7,0,0,0,0-.24,4.35,4.35,0,0,0-.59,0c0-.2.12-.63.17-.88l-.24.06A1.84,1.84,0,0,1,55.65,6a.32.32,0,0,1,.26-.26,12.94,12.94,0,0,1,2-.12.7.7,0,0,1,.45.2.84.84,0,0,1,.23.37,5,5,0,0,1,.13.82A14.2,14.2,0,0,0,57,7a1.28,1.28,0,0,1,0,.29l2.28,0c0,.14,0,.43,0,.55H57.06a3,3,0,0,1,0,.33h1.76c0,.12,0,.37,0,.5H57.1v.35h2.85c0,.19,0,.38,0,.57-.4,0-1,0-1.43,0l.39.26c-.23.13-.55.32-.81.5.5.16,1.61.55,1.93.7a.37.37,0,0,1,.15.41A.82.82,0,0,1,60.08,11.86ZM55,3.68l-2.15.17a3.52,3.52,0,0,0-.06.37c.73-.07,1.47-.13,2.22-.16C55,3.95,55,3.79,55,3.68Zm-.86,2.62a7,7,0,0,0-1.29.08,2.12,2.12,0,0,0,0,.38,14.81,14.81,0,0,1,1.51-.12C54.32,6.55,54.31,6.33,54.13,6.31Zm2.22,2.43c-.65,0-1.39,0-1.94.09v.34l2-.09A2.87,2.87,0,0,1,56.35,8.73Zm0-.84c-.58,0-1.3,0-1.87.09a3,3,0,0,0,0,.31l1.89-.09A3,3,0,0,0,56.31,7.9Zm-.66,1.77,1.61.45L58,9.63C57.22,9.63,56.45,9.64,55.65,9.66Zm2.1-6c-.57,0-1.36,0-2,0,0,.1,0,.28,0,.38.73,0,1.47,0,2.22,0C58,3.89,57.93,3.67,57.75,3.63Zm.14,2.62a.32.32,0,0,0-.26-.13c-.27,0-.85,0-1.09,0a2.5,2.5,0,0,0-.08.41c.35,0,1.09-.07,1.5-.08A.54.54,0,0,0,57.89,6.26Z"/>
<path fill="#a75b10" d="M68.85,11.16a3.22,3.22,0,0,1-2.44,0,2.61,2.61,0,0,1-1.49-1.7A4,4,0,0,1,65,6.93a2.67,2.67,0,0,1,1.23-1.35,2.78,2.78,0,0,1,2.07-.22A2.74,2.74,0,0,1,70,6.6a3.92,3.92,0,0,1,.35,2.71A2.66,2.66,0,0,1,68.85,11.16Zm.42-4.1a1.82,1.82,0,0,0-1-.89,2.25,2.25,0,0,0-1.53,0,1.77,1.77,0,0,0-1,1.08,3.32,3.32,0,0,0,0,2,2,2,0,0,0,1.11,1.28,1.86,1.86,0,0,0,1.63,0,2,2,0,0,0,1-1.37A3.12,3.12,0,0,0,69.27,7.06Z"/>
<path fill="#a75b10" d="M73.67,6a1.23,1.23,0,0,0-.78.34,2.45,2.45,0,0,0-.78,1.46c-.07,1.24-.06,2.25,0,3.52h-.84a49.11,49.11,0,0,1,.16-6l.84,0c0,.23,0,.51,0,.73a1.79,1.79,0,0,1,.78-.7,1.56,1.56,0,0,1,1.1-.08.63.63,0,0,1,.38.35,1.88,1.88,0,0,1,.14.62A2.11,2.11,0,0,0,73.67,6Z"/>
<path fill="#a75b10" d="M88.74,4c-1.61,0-4.16,0-5.6.12-.35.38-.7.79-1,1.2A26.08,26.08,0,0,1,86.27,5a1.76,1.76,0,0,1,1.29.41A1.79,1.79,0,0,1,88,6.5a24.3,24.3,0,0,1-.06,4.42,1,1,0,0,1-.27.59,1,1,0,0,1-.59.24,4.6,4.6,0,0,1-.89,0,.56.56,0,0,1-.39-.29,1.48,1.48,0,0,1-.19-.57,7.94,7.94,0,0,0,1.18.09c.25,0,.34-.13.37-.35a10.78,10.78,0,0,0,.07-1.27,43.62,43.62,0,0,0-5.74.41c0,.65,0,1.37,0,2h-.84A40.57,40.57,0,0,1,80.82,7a24.55,24.55,0,0,0-1.44,2.08A2.09,2.09,0,0,1,79,8.63a.64.64,0,0,1,.07-.71c.7-1,2-2.62,2.88-3.73a18,18,0,0,0-2.88.38,1.42,1.42,0,0,1,.06-.52.59.59,0,0,1,.55-.39c.52-.09,2.13-.21,3-.27C83,3,83.66,2.28,84,2a9,9,0,0,1,.86.26c-.35.35-.67.73-1,1.08,1.61-.08,3.27-.08,4.92-.08C88.76,3.45,88.76,3.76,88.74,4ZM87.18,7.55a44.29,44.29,0,0,0-5.62.31l0,1.17A41.17,41.17,0,0,1,87.2,8.7,9.61,9.61,0,0,0,87.18,7.55Zm-.09-1.31a.62.62,0,0,0-.6-.49,26,26,0,0,0-4.76.33c0,.23-.08.77-.1,1.06a43.43,43.43,0,0,1,5.53-.3A3.37,3.37,0,0,0,87.09,6.24Z"/>
<path fill="#a75b10" d="M91.46,10.11c-.08.58-.12,1.18-.14,1.78a1,1,0,0,1-.59-.26.5.5,0,0,1-.15-.43c.16-1.61.39-3.22.67-4.8l.67.19c-.14.92-.29,1.88-.39,2.81l.77.13c0-.91,0-2.72,0-3.63a14.75,14.75,0,0,0-1.75.27,2.51,2.51,0,0,1,.07-.5.43.43,0,0,1,.3-.29,12,12,0,0,1,1.2-.19c0-.37,0-1,0-1.36a10.64,10.64,0,0,0-1.49.22,1.41,1.41,0,0,1,.07-.49.42.42,0,0,1,.3-.29,6.6,6.6,0,0,1,1.14-.16c0-.3,0-.91.06-1.18.21,0,.51,0,.77,0,0,.28-.07.82-.08,1.1.33,0,.89-.06,1.18-.06,0,.19,0,.53,0,.7l-1.22.08a13.07,13.07,0,0,0,0,1.36L94.34,5c0,.23,0,.5,0,.72l-1.31.08c0,.46,0,.93,0,1.37.41-.06.84-.1,1.25-.14a6.34,6.34,0,0,1,0,.67c-.41,0-.82.09-1.24.17a17.49,17.49,0,0,0,0,1.75c1.9.29,5,.82,7.12,1.35a.46.46,0,0,1,.3.36,1.77,1.77,0,0,1,0,.5C97.5,11.08,94.12,10.52,91.46,10.11Zm5.88-2c0,.62,0,1.46,0,2h-.73c0-.57,0-1.32,0-1.78a15.54,15.54,0,0,0-2.54.85,1.94,1.94,0,0,1,0-.55.52.52,0,0,1,.24-.35l.38-.15c0-1.81.06-3.53.19-5a2.14,2.14,0,0,0-.49.06,1.83,1.83,0,0,1,.08-.51.35.35,0,0,1,.34-.27c.69-.12,1.87-.24,2.92-.33,0,.19,0,.55,0,.73l-.53,0c0,1.53.09,3.05.1,4.6a3.22,3.22,0,0,1,.37-.08,4.39,4.39,0,0,1,.12.67Zm-.8-3.52c-.33,0-.67.08-1,.14,0,.38,0,.8,0,1.22.34-.06.81-.13,1.08-.15C96.57,5.5,96.56,4.94,96.54,4.62Zm0,1.88c-.33,0-.74.08-1.08.15V7.91c.36-.12.74-.21,1.09-.29C96.58,7.33,96.58,6.83,96.57,6.5Zm-.1-3.56c-.26,0-.6.06-.83.09,0,.35-.06.73-.07,1.07L96.51,4C96.51,3.72,96.49,3.22,96.47,2.94Zm3.89,6.83a1.21,1.21,0,0,1-.41.39c-.37-1-.73-1.93-1.09-2.72-.24.75-.55,1.71-.84,2.73a2.35,2.35,0,0,1-.41-.33.48.48,0,0,1-.09-.51c.27-.91.58-1.86.89-2.78-.27-.63-.64-1.44-1-2,.2-.12.43-.28.59-.38.21.43.49,1,.7,1.54.21-.64.49-1.5.71-2.09,0,0,0-.07-.08-.07a6.19,6.19,0,0,0-1.87.33,1.92,1.92,0,0,1,0-.51A.38.38,0,0,1,97.8,3a6,6,0,0,1,1.89-.21.61.61,0,0,1,.49.26.91.91,0,0,1-.06.75c-.22.62-.67,1.9-.93,2.67.39.85.86,1.86,1.23,2.76A.52.52,0,0,1,100.36,9.77Z"/>
<path fill="#a75b10" d="M102.6,11.72a51.18,51.18,0,0,1,.1-6.9,3,3,0,0,0-.24.46,2.66,2.66,0,0,1-.3-.49.64.64,0,0,1,.07-.57,25.23,25.23,0,0,1,1.52-2.36l.66.28c-.3.41-.62.87-.88,1.27a7,7,0,0,1,1.52-.3,1,1,0,0,1,.86.33,1.47,1.47,0,0,1,.33,1c.13,1.94.15,5.29.12,6.77A17.09,17.09,0,0,0,102.6,11.72Zm.69-4.06c0,.75,0,2.31,0,3.12.71-.14,1.49-.22,2.23-.29,0-1.08,0-2.08,0-3.18A10,10,0,0,0,103.29,7.65Zm2.18-3.5a.33.33,0,0,0-.31-.32,4.11,4.11,0,0,0-1.63.34c-.1.89-.17,1.82-.2,2.72a12.82,12.82,0,0,1,2.25-.31C105.58,6.06,105.53,4.71,105.47,4.16Zm6.27,7.15a1,1,0,0,1-.59.38,4.51,4.51,0,0,1-1.57.07.42.42,0,0,1-.31-.3,2.6,2.6,0,0,1-.1-.5,7.3,7.3,0,0,0,1.59.06.57.57,0,0,0,.46-.45,45.43,45.43,0,0,0,0-5.9.69.69,0,0,0-.48-.56,8.33,8.33,0,0,0-2.89.36,11.44,11.44,0,0,0-.66,1.61,3.29,3.29,0,0,1-.42-.35.46.46,0,0,1-.1-.51,32.1,32.1,0,0,1,1.64-3.37l.72.27q-.42.75-.8,1.53a10.18,10.18,0,0,1,2.54-.24,1.23,1.23,0,0,1,.87.46A1.75,1.75,0,0,1,112,5.05a51.52,51.52,0,0,1,0,5.52A1.52,1.52,0,0,1,111.74,11.31Zm-1.83-2.57a1.64,1.64,0,0,1-.44.34,17.9,17.9,0,0,0-1.67-3.33l.69-.37A15,15,0,0,1,110,8.26.5.5,0,0,1,109.91,8.74Z"/>
<path fill="#a75b10" d="M123.57,11.94a31.22,31.22,0,0,0-4.88-2.1,42.73,42.73,0,0,0-4.87,2.06,1,1,0,0,1-.12-.58.52.52,0,0,1,.31-.42,37.89,37.89,0,0,1,4.25-1.67c0-.77,0-1.9-.07-2.78-1.22.07-2.81.2-3.92.35a1,1,0,0,1,.12-.51.52.52,0,0,1,.4-.22c2.52-.26,4.95-.4,7.47-.43,0-.38,0-.82,0-1.23a54.58,54.58,0,0,0-7.79.57,1.08,1.08,0,0,1,.17-.52.63.63,0,0,1,.45-.26,63.12,63.12,0,0,1,7.11-.45A1.85,1.85,0,0,0,122,3a.76.76,0,0,0-.64-.36,30.35,30.35,0,0,0-7.06.44,1.39,1.39,0,0,1,.14-.52.53.53,0,0,1,.39-.23A31.68,31.68,0,0,1,121.39,2a1.56,1.56,0,0,1,1.23.53,2.25,2.25,0,0,1,.37,1.1,18.71,18.71,0,0,1,.07,2.71c-1.42,0-2.79,0-4,.1,0,.86,0,1.88,0,2.81a36.46,36.46,0,0,1,4.3,1.73.53.53,0,0,1,.29.41A.94.94,0,0,1,123.57,11.94ZM116.08,9.5a13,13,0,0,0-1.8-1.87l.58-.55a12.2,12.2,0,0,1,1.51,1.49.43.43,0,0,1,.09.44A1.29,1.29,0,0,1,116.08,9.5Zm5.23-.16a1,1,0,0,1-.42-.49.51.51,0,0,1,.09-.5,13.06,13.06,0,0,1,1.47-1.73l.66.45A15.82,15.82,0,0,0,121.31,9.34Z"/>
<path fill="#a75b10" d="M129.35,10.22a2.24,2.24,0,0,1-.44.26c-.06-.26-.14-.55-.21-.79-.93.37-2,.82-3.17,1.42a2,2,0,0,1,0-1c.21-.78.81-2.85,1.22-4-.48.07-.92.16-1.39.27a2.15,2.15,0,0,1,0-.52.46.46,0,0,1,.33-.32,20.77,20.77,0,0,1,3.55-.44v.73L127.61,6c-.44,1.23-.88,2.55-1.24,3.87L128.49,9a16.91,16.91,0,0,0-.6-1.78c.15-.07.48-.2.67-.27a25.61,25.61,0,0,1,1,2.81A.44.44,0,0,1,129.35,10.22ZM125.7,3.36a1.92,1.92,0,0,1,.07-.51.35.35,0,0,1,.24-.28,14.18,14.18,0,0,1,3.15-.33V3A19.12,19.12,0,0,0,125.7,3.36Zm9.28,8a1.11,1.11,0,0,1-.64.37,12.4,12.4,0,0,1-1.6,0,1.06,1.06,0,0,1-.64-.27,1,1,0,0,1-.3-.66c0-.67-.06-2.87,0-3.72-.49.89-1.37,3.25-2.1,4.65a3,3,0,0,1-.38-.35c-.14-.16-.16-.29,0-.55.55-1.11,1.24-2.8,1.68-3.72-.44.09-.65.1-1.29.26,0-1,0-2,.1-2.91l-.31.49a2.46,2.46,0,0,1-.35-.45.58.58,0,0,1,0-.55c.38-.5,1.17-1.54,1.66-2.16l.65.28-.45.58a11.33,11.33,0,0,1,2.62-.26,1,1,0,0,1,.67.29,1.17,1.17,0,0,1,.36.77c.12,1.2.2,2.26.23,3.44-.78,0-2,.06-2.36.09-.09,1-.08,2.62-.08,3.61a.43.43,0,0,0,.3.42,5.8,5.8,0,0,0,1.35,0,.43.43,0,0,0,.33-.29,1.93,1.93,0,0,0,0-.53,1.79,1.79,0,0,1,.44.08.34.34,0,0,1,.24.31A1.18,1.18,0,0,1,135,11.37ZM130.5,5.28a12.28,12.28,0,0,0,0,1.31,5.62,5.62,0,0,1,.77-.14c.17-.49.42-1,.52-1.31C131.27,5.18,131,5.23,130.5,5.28Zm.13-1.78c0,.3-.08.84-.1,1.1.46-.07,1-.13,1.46-.17.17-.43.37-.89.5-1.22C132.08,3.29,131,3.4,130.63,3.51ZM134.08,5a13.58,13.58,0,0,0-1.56.07c-.16.43-.37,1-.51,1.3.37,0,1.67-.09,2.11-.1C134.12,5.88,134.09,5.31,134.08,5ZM135,9.87a1.48,1.48,0,0,1-.34.28,4.32,4.32,0,0,0-.23-.51c-.57.16-1.13.35-1.68.53a1.36,1.36,0,0,1-.07-.88c.16-.57.44-1.46.69-2.14.15.07.46.19.62.24-.21.6-.43,1.24-.62,1.87l.77-.23c-.1-.2-.24-.46-.35-.63l.53-.31a11.08,11.08,0,0,1,.78,1.36A.37.37,0,0,1,135,9.87Zm-1.1-6.42a.49.49,0,0,0-.37-.31c-.29,0-.17,0-.29,0-.09.29-.39.88-.51,1.23.34,0,.81,0,1.29,0A3.44,3.44,0,0,0,133.91,3.45Z"/>
<path fill="#a75b10" d="M140.8,6.86c-.22.22-.5.46-.71.66a1.66,1.66,0,0,0-.43.73,3.19,3.19,0,0,0-.1,1.21,1.52,1.52,0,0,1-.53-.14.44.44,0,0,1-.22-.44A4,4,0,0,1,139,7.75a2.25,2.25,0,0,1,.57-.81c.25-.23.52-.46.78-.74a1.7,1.7,0,0,0,.43-1.27,1.35,1.35,0,0,0-.52-1.07A1.47,1.47,0,0,0,139,3.67a1.89,1.89,0,0,0-1,.67,2.42,2.42,0,0,0-.48,1.38,1.54,1.54,0,0,1-.51-.27.49.49,0,0,1-.14-.46,2.51,2.51,0,0,1,.75-1.48,2.56,2.56,0,0,1,1.45-.71,2.28,2.28,0,0,1,1.63.42,2.15,2.15,0,0,1,.78,1.63A2.73,2.73,0,0,1,140.8,6.86Zm-2,4.46c0-.29,0-1,0-1.38l.74,0v1.38Z"/>
<path fill="#a75b10" d="M161.36,11.47a30.81,30.81,0,0,0-4.12-3.27c0,1.17,0,2.44-.1,3.65h-.82c0-1.2.08-2.42.09-3.58a53.41,53.41,0,0,0-4.31,3.29,1.06,1.06,0,0,1-.29-.52.5.5,0,0,1,.15-.52c.94-.75,2.87-2.15,4-2.89-1.3.06-2.78.21-4.15.41a1.51,1.51,0,0,1,.13-.56.49.49,0,0,1,.38-.28c1.27-.16,2.75-.3,4.05-.37,0-1.07,0-2.14,0-3.15-1.36.09-2.71.24-4.06.44a1.15,1.15,0,0,1,.12-.56.47.47,0,0,1,.35-.26c1.09-.15,2.37-.28,3.56-.35,0-.21,0-.69,0-1.07h.83c0,.31,0,.77,0,1,1.32-.06,2.71-.1,4.06-.08v.73c-1.33,0-2.69,0-4,.08,0,1.07.06,2.08.06,3.14,1.45,0,2.89-.06,4.35-.06v.75c-1.32,0-2.67,0-4,0a35.66,35.66,0,0,1,3.95,2.95.56.56,0,0,1,.1.55A.92.92,0,0,1,161.36,11.47Zm-6.75-4.78a10.57,10.57,0,0,0-1.41-2l.63-.46a10.07,10.07,0,0,1,1.22,1.58.43.43,0,0,1,0,.39A1.25,1.25,0,0,1,154.61,6.69ZM159,6.51a1.08,1.08,0,0,1-.46-.37.52.52,0,0,1,0-.5,13.36,13.36,0,0,1,1.13-1.73l.69.41A19.73,19.73,0,0,0,159,6.51Z"/>
<path fill="#a75b10" d="M173.22,4c-1.61,0-4.16,0-5.6.12-.35.38-.7.79-1,1.2A26.08,26.08,0,0,1,170.76,5a1.76,1.76,0,0,1,1.29.41,1.79,1.79,0,0,1,.42,1.09,24.3,24.3,0,0,1-.06,4.42,1,1,0,0,1-.27.59,1,1,0,0,1-.59.24,4.6,4.6,0,0,1-.89,0,.56.56,0,0,1-.39-.29,1.48,1.48,0,0,1-.19-.57,7.94,7.94,0,0,0,1.18.09c.25,0,.34-.13.37-.35a10.78,10.78,0,0,0,.07-1.27,43.62,43.62,0,0,0-5.74.41c0,.65,0,1.37,0,2h-.84A40.57,40.57,0,0,1,165.3,7a24.55,24.55,0,0,0-1.44,2.08,2.09,2.09,0,0,1-.34-.46.64.64,0,0,1,.07-.71c.7-1,2-2.62,2.88-3.73a18,18,0,0,0-2.88.38,1.42,1.42,0,0,1,.06-.52.59.59,0,0,1,.55-.39c.52-.09,2.13-.21,3-.27.34-.38,1-1.11,1.27-1.44a9,9,0,0,1,.86.26c-.35.35-.67.73-1,1.08,1.61-.08,3.27-.08,4.92-.08C173.24,3.45,173.24,3.76,173.22,4Zm-1.56,3.58a44.29,44.29,0,0,0-5.62.31L166,9a41.17,41.17,0,0,1,5.69-.34A9.61,9.61,0,0,0,171.66,7.55Zm-.09-1.31a.62.62,0,0,0-.6-.49,26,26,0,0,0-4.76.33c0,.23-.08.77-.1,1.06a43.43,43.43,0,0,1,5.53-.3A3.37,3.37,0,0,0,171.57,6.24Z"/>
<path fill="#a75b10" d="M177.74,6.78a29.22,29.22,0,0,1,1.59,2.95.45.45,0,0,1,0,.51,1.92,1.92,0,0,1-.49.43,22.22,22.22,0,0,0-1.51-3c-.7,1.24-1.25,2.55-1.87,3.83A1.06,1.06,0,0,1,175,11a.68.68,0,0,1,0-.53c.56-1.23,1.17-2.44,1.81-3.65-.5-.84-1.08-1.66-1.66-2.47l.63-.44c.52.67,1,1.39,1.46,2.1.36-.65,1.06-1.92,1.46-2.62a.11.11,0,0,0-.09-.16,8.91,8.91,0,0,0-3.53.43,1.85,1.85,0,0,1,0-.56.37.37,0,0,1,.28-.3,10.43,10.43,0,0,1,3.31-.3,1,1,0,0,1,.71.43.8.8,0,0,1,0,.84C178.85,4.76,178.3,5.74,177.74,6.78Zm6.84,4.51a.77.77,0,0,1-.53.48,1,1,0,0,1-.77-.29,6.69,6.69,0,0,1-1.65-2.53,29.92,29.92,0,0,0-2,2.89,1.37,1.37,0,0,1-.48-.4.47.47,0,0,1,.06-.52c.66-1,1.35-2,2.1-2.88a15.9,15.9,0,0,1-.58-2.9,10.36,10.36,0,0,0-1.57.41,1.28,1.28,0,0,1,0-.59.41.41,0,0,1,.23-.28,11.39,11.39,0,0,1,1.21-.31c0-.84-.08-1.59-.09-2.44l.78,0c0,.79,0,1.56.09,2.32,1.09-.15,2.22-.31,3.33-.41l.06.74a33.15,33.15,0,0,0-3.31.43,12.79,12.79,0,0,0,.41,2.33c.59-.71,1.2-1.42,1.81-2.1l.62.49c-.69.79-1.44,1.66-2.14,2.53a6.22,6.22,0,0,0,1.64,2.66s.1,0,.13-.06a4.83,4.83,0,0,0,.23-1.37,1.48,1.48,0,0,1,.53.23.46.46,0,0,1,.2.42A4.1,4.1,0,0,1,184.58,11.29Zm-1.08-7.5a6.67,6.67,0,0,0-1.37-1.44l.56-.56a6.15,6.15,0,0,1,1.15,1.11.45.45,0,0,1,0,.45A1.6,1.6,0,0,1,183.5,3.79Z"/>
<path fill="#a75b10" d="M188.59,11.52a.65.65,0,0,1-.22-.35.44.44,0,0,1,0-.33,1.67,1.67,0,0,0,.29-.78l-.44,0V8.92h.91A4.35,4.35,0,0,1,188.59,11.52Z"/>
<path fill="#a75b10" d="M207.87,6.28A32.66,32.66,0,0,0,203,3.05a44.29,44.29,0,0,0-4.49,3.62,1.15,1.15,0,0,1-.24-.62.5.5,0,0,1,.16-.42A40.17,40.17,0,0,1,203.27,2l.74.37-.31.21A41.67,41.67,0,0,1,208,5.31a.5.5,0,0,1,.12.44A1.16,1.16,0,0,1,207.87,6.28Zm-9.39,5.46a2.06,2.06,0,0,1,0-.52.45.45,0,0,1,.36-.34,33.84,33.84,0,0,1,3.86-.34c0-.64.08-1.34.08-2-.91,0-2.28.17-3.32.33a1.18,1.18,0,0,1,.08-.52.49.49,0,0,1,.36-.29c.59-.09,2.26-.23,2.88-.26,0-.36,0-1.37-.07-1.73-.92,0-1.85.15-2.75.28a1.67,1.67,0,0,1,.09-.52.42.42,0,0,1,.36-.28,40.72,40.72,0,0,1,5.79-.28V6c-.85,0-1.85,0-2.68,0,0,.46,0,1.18,0,1.74.81,0,2.54,0,3.39,0,0,.17,0,.49,0,.71-.87,0-2.52,0-3.38.06a15.94,15.94,0,0,1-.1,2c1,0,3.29,0,4.4,0,0,.21,0,.55,0,.73A63.28,63.28,0,0,0,198.48,11.74Z"/>
<path fill="#a75b10" d="M213.14,5.53c-.38.38-1,1-1.33,1.38A8.26,8.26,0,0,1,214,6.72a1.18,1.18,0,0,1,.77.37,1.48,1.48,0,0,1,.28.71c.08,1.09.13,2.58.1,3.65a19.34,19.34,0,0,0-4.44.27c0-1.27.09-2.71.22-3.79-.24.26-.52.55-.74.8a3.42,3.42,0,0,1-.22-.38.4.4,0,0,1,0-.38c.45-.58,1.66-1.86,2.09-2.32a16.77,16.77,0,0,0-2.14.35,1.42,1.42,0,0,1,.06-.55.41.41,0,0,1,.31-.23c.32-.07,1.09-.2,1.6-.24,0-.49,0-1,0-1.45a9.63,9.63,0,0,0-1.65.27,1.59,1.59,0,0,1,.08-.52.38.38,0,0,1,.28-.27c.39-.08,1-.16,1.3-.21,0-.24,0-.63,0-.85a5.82,5.82,0,0,1,.79,0c0,.2,0,.6-.06.81l1.42-.06c0,.2,0,.5,0,.7l-1.4.07c0,.5,0,.94,0,1.45h.16l2.09-2a5.63,5.63,0,0,1,.55.41c-.51.46-1,1-1.5,1.43l1.61-.06c0,.16,0,.51,0,.71A24.21,24.21,0,0,0,213.14,5.53Zm1.15,3.82a19.12,19.12,0,0,0-2.73.16c0,.48,0,.94,0,1.38a25,25,0,0,1,2.8-.16C214.32,10.37,214.32,9.71,214.29,9.35Zm-.09-1.54a.43.43,0,0,0-.38-.36,6.92,6.92,0,0,0-2.12.23c0,.29-.06.86-.08,1.14.86-.09,1.76-.13,2.66-.14A5.79,5.79,0,0,0,214.19,7.8Zm5.3,2.21a1.33,1.33,0,0,1-.55.56,2.39,2.39,0,0,1-1.23.14.47.47,0,0,1-.41-.3,3,3,0,0,1-.17-.57,3,3,0,0,0,1.39,0,.56.56,0,0,0,.35-.49c.14-1.16-.87-2.85-1.62-3.69a7.31,7.31,0,0,0,1.49-2.57c.06-.22,0-.37-.29-.4a7.06,7.06,0,0,0-1.51.1c-.21,2.32-.36,6.91-.3,9h-.77c0-2.16.08-6.53.25-8.8-.17,0-.37.12-.52.17a1.75,1.75,0,0,1,.08-.59.48.48,0,0,1,.33-.34,7.71,7.71,0,0,1,2.6-.3,1,1,0,0,1,.81.43,1.07,1.07,0,0,1,.07.82,7.64,7.64,0,0,1-1.27,2.46,5.83,5.83,0,0,1,1.48,3.59A1.61,1.61,0,0,1,219.49,10Z"/>
<path fill="#a75b10" d="M231.26,4c-1.61,0-4.16,0-5.6.12-.35.38-.7.79-1,1.2A26.08,26.08,0,0,1,228.8,5a1.76,1.76,0,0,1,1.29.41,1.79,1.79,0,0,1,.42,1.09,24.3,24.3,0,0,1-.06,4.42,1,1,0,0,1-.27.59,1,1,0,0,1-.59.24,4.6,4.6,0,0,1-.89,0,.56.56,0,0,1-.39-.29,1.48,1.48,0,0,1-.19-.57,7.94,7.94,0,0,0,1.18.09c.25,0,.34-.13.37-.35a10.78,10.78,0,0,0,.07-1.27,43.62,43.62,0,0,0-5.74.41c0,.65,0,1.37,0,2h-.84A40.57,40.57,0,0,1,223.34,7a24.55,24.55,0,0,0-1.44,2.08,2.09,2.09,0,0,1-.34-.46.64.64,0,0,1,.07-.71c.7-1,2-2.62,2.88-3.73a18,18,0,0,0-2.88.38,1.42,1.42,0,0,1,.06-.52.59.59,0,0,1,.55-.39c.52-.09,2.13-.21,3-.27.34-.38,1-1.11,1.27-1.44a9,9,0,0,1,.86.26c-.35.35-.67.73-1,1.08,1.61-.08,3.27-.08,4.92-.08C231.28,3.45,231.28,3.76,231.26,4ZM229.7,7.55a44.29,44.29,0,0,0-5.62.31L224,9a41.17,41.17,0,0,1,5.69-.34A9.61,9.61,0,0,0,229.7,7.55Zm-.09-1.31a.62.62,0,0,0-.6-.49,26,26,0,0,0-4.76.33c0,.23-.08.77-.1,1.06a43.43,43.43,0,0,1,5.53-.3A3.37,3.37,0,0,0,229.61,6.24Z"/>
</svg>
