<svg xmlns="http://www.w3.org/2000/svg" xmlns:xlink="http://www.w3.org/1999/xlink" width="26" height="26" viewBox="0 0 26 26">
    <defs>
        <path id="a" d="M.002.017v25.24h25.963V.017H.002z"/>
    </defs>
    <g fill="none" fill-rule="evenodd">
        <mask id="b" fill="#fff">
            <use xlink:href="#a"/>
        </mask>
        <path fill="#FFF" d="M23.485 22.703c-1.18 0-1.99-.983-2.42-1.687a12.229 12.229 0 0 0 3.63-8.705c0-6.79-5.529-12.294-12.347-12.294C5.528.017 0 5.521 0 12.311c0 6.79 5.528 12.293 12.348 12.293 2.27 0 4.398-.61 6.226-1.675 1.196 1.659 3.885 2.328 3.885 2.328h3.506v-2.554h-2.48zM5.614 15.666a3.36 3.36 0 0 1-3.368-3.353 3.36 3.36 0 0 1 3.368-3.352 3.36 3.36 0 0 1 3.367 3.352 3.36 3.36 0 0 1-3.367 3.353zm6.743 6.714a3.36 3.36 0 0 1-3.367-3.352 3.36 3.36 0 0 1 3.367-3.353 3.36 3.36 0 0 1 3.367 3.353 3.36 3.36 0 0 1-3.367 3.352zm-1.78-10.066c0-.98.797-1.773 1.78-1.773.984 0 1.781.793 1.781 1.773 0 .979-.797 1.772-1.78 1.772-.984 0-1.781-.793-1.781-1.772zm1.78-3.624A3.36 3.36 0 0 1 8.99 5.337a3.36 3.36 0 0 1 3.367-3.353 3.36 3.36 0 0 1 3.367 3.353 3.36 3.36 0 0 1-3.367 3.353zm3.639 3.623a3.36 3.36 0 0 1 3.367-3.352 3.36 3.36 0 0 1 3.368 3.352 3.36 3.36 0 0 1-3.368 3.353 3.36 3.36 0 0 1-3.367-3.353z" mask="url(#b)"/>
    </g>
</svg>
