<svg xmlns="http://www.w3.org/2000/svg" width="55" height="47" viewBox="0 0 55 47">
    <path fill="#F8C91C" fill-rule="evenodd" d="M53.92 38.867c-2.19-3.62-20.71-35.105-21.71-36.633-1.983-3.03-6.95-2.976-8.931.148C22.33 3.88 3.173 35.983 1.149 39.046-.875 42.11-.558 46.32 4.808 46.31c6.325-.013 43.041-.08 46.533.01 3.495.087 4.764-3.833 2.578-7.453zm-26.408 1.468a3.278 3.278 0 0 1-3.271-3.283 3.276 3.276 0 0 1 3.27-3.28 3.276 3.276 0 0 1 3.272 3.28 3.278 3.278 0 0 1-3.271 3.283zm3.324-13.187c0 1.838-1.767 3.4-3.397 3.4-1.633 0-3.143-1.694-3.143-3.533V11.631c0-1.835 1.51-3.463 3.143-3.463 1.63 0 3.397 1.706 3.397 3.544v15.436z"/>
</svg>
