<svg xmlns="http://www.w3.org/2000/svg" width="173" height="173" viewBox="0 0 173 173">
    <g fill="none" fill-rule="evenodd" transform="translate(0 -33)">
        <g transform="rotate(30 33.94 126.666)">
            <rect width="82.125" height="15.969" x="38.781" y="91.25" fill="#F5AA19" rx="7.984"/>
            <rect width="11.406" height="11.406" x="61.594" y="102.657" fill="#F5AA19" rx="5.703"/>
            <rect width="11.406" height="11.406" x="88.969" y="102.657" fill="#F5AA19" rx="5.703"/>
            <rect width="11.406" height="13.688" x="75.282" y="102.657" fill="#F5AA19" rx="5.703"/>
            <path fill="#F4DFB4" d="M36.758 45.625a40.404 40.404 0 0 1-.258-4.562C36.5 18.384 55.395 0 78.703 0c23.309 0 42.204 18.384 42.204 41.063 0 1.542-.088 3.064-.258 4.562H36.758z"/>
            <path fill="#FFD179" d="M102.744 20.757a4.788 4.788 0 0 1-3.729 1.777 4.744 4.744 0 0 1-2.997-1.063c-5.559-4.478-12.494-3.555-12.564-3.537-2.614.4-5.053-1.394-5.472-4.008-.4-2.614 1.394-5.053 4.008-5.472.453-.07 11.153-1.638 20.04 5.56 2.056 1.672 2.387 4.687.714 6.743"/>
            <path fill="#EEEAE2" d="M159.688 98.094V87.347c0-24.298-19.702-44.003-44.005-44.003H44.005C19.701 43.344 0 63.044 0 87.347v10.747h159.688z"/>
            <ellipse cx="46.766" cy="71.86" fill="#F5AA19" rx="7.984" ry="7.984"/>
            <ellipse cx="80.985" cy="71.86" fill="#F5AA19" rx="7.984" ry="7.984"/>
            <ellipse cx="110.641" cy="71.86" fill="#F5AA19" rx="7.984" ry="7.984"/>
            <path fill="#FFD179" d="M109.645 36.98a4.17 4.17 0 0 1-.924.105 4.77 4.77 0 0 1-4.687-3.886c-.244-1.203-.523-1.813-.872-2.353-1.411-2.23-.732-5.193 1.499-6.604 2.248-1.412 5.21-.75 6.622 1.499 1.045 1.672 1.725 3.398 2.143 5.628.523 2.596-1.185 5.106-3.781 5.611"/>
        </g>
        <rect width="60" height="4" x="5.981" y="146.732" fill="#F5AA19" rx="2" transform="rotate(140 35.98 148.732)"/>
        <rect width="50" height="4" x="68.311" y="175.967" fill="#F5AA19" rx="2" transform="rotate(100 93.31 177.967)"/>
        <rect width="40" height="4" x="35.606" y="155.388" fill="#F5AA19" rx="2" transform="rotate(130 55.606 157.388)"/>
        <rect width="60" height="4" x="41.563" y="175.397" fill="#F5AA19" rx="2" transform="rotate(113 71.563 177.397)"/>
    </g>
</svg>
